<?xml version="1.0" encoding="UTF-8" standalone="no"?>
<!DOCTYPE svg PUBLIC "-//W3C//DTD SVG 1.1//EN"
 "http://www.w3.org/Graphics/SVG/1.1/DTD/svg11.dtd">
<!-- Generated by graphviz version 14.1.4 (20260321.0153)
 -->
<!-- Title: PTP_Bridge_Architecture Pages: 1 -->
<svg width="1869pt" height="754pt"
 viewBox="0.00 0.00 1869.00 754.00" xmlns="http://www.w3.org/2000/svg" xmlns:xlink="http://www.w3.org/1999/xlink">
<g id="graph0" class="graph" transform="scale(1 1) rotate(0) translate(4 749.85)">
<title>PTP_Bridge_Architecture</title>
<polygon fill="white" stroke="none" points="-4,4 -4,-749.85 1865.25,-749.85 1865.25,4 -4,4"/>
<text xml:space="preserve" text-anchor="middle" x="930.62" y="-726.65" font-family="Helvetica,sans-Serif" font-size="16.00">PTP Gesamtarchitektur — T1S 100BaseT Bridge (SAM E54)</text>
<g id="clust1" class="cluster">
<title>cluster_external</title>
<polygon fill="#f8f8f8" stroke="#888888" stroke-dasharray="5,2" points="1462,-378.8 1462,-482.57 1777,-482.57 1777,-378.8 1462,-378.8"/>
<text xml:space="preserve" text-anchor="middle" x="1619.5" y="-467.17" font-family="Helvetica,sans-Serif" font-size="12.00">Externe Geräte</text>
</g>
<g id="clust2" class="cluster">
<title>cluster_phy</title>
<polygon fill="#eeeeee" stroke="#aaaaaa" points="1523,-155.52 1523,-259.29 1782,-259.29 1782,-155.52 1523,-155.52"/>
<text xml:space="preserve" text-anchor="middle" x="1652.5" y="-243.89" font-family="Helvetica,sans-Serif" font-size="12.00">Physikalische Schnittstellen</text>
</g>
<g id="clust3" class="cluster">
<title>cluster_sam</title>
<polygon fill="#e8f4e8" stroke="#38761d" points="8,-8 8,-711.1 1431,-711.1 1431,-8 8,-8"/>
<text xml:space="preserve" text-anchor="middle" x="719.5" y="-694.75" font-family="Helvetica,sans-Serif" font-size="13.00">SAM E54 — Bridge&#45;Firmware</text>
</g>
<g id="clust4" class="cluster">
<title>cluster_driver</title>
<polygon fill="#d9ead3" stroke="#38761d" points="1199,-155.52 1199,-680.1 1423,-680.1 1423,-155.52 1199,-155.52"/>
<text xml:space="preserve" text-anchor="middle" x="1311" y="-665.65" font-family="Helvetica,sans-Serif" font-size="11.00">Treiber&#45;Schicht</text>
</g>
<g id="clust5" class="cluster">
<title>cluster_tcpip</title>
<polygon fill="#dce8f8" stroke="#1a6496" points="28,-16 28,-245.04 283,-245.04 283,-16 28,-16"/>
<text xml:space="preserve" text-anchor="middle" x="155.5" y="-230.59" font-family="Helvetica,sans-Serif" font-size="11.00">Harmony TCP/IP Stack (ICMP, TCP, ARP, Telnet)</text>
</g>
<g id="clust6" class="cluster">
<title>cluster_app</title>
<polygon fill="#fce5cd" stroke="#cc4400" points="303,-128.52 303,-514.58 870,-514.58 870,-128.52 303,-128.52"/>
<text xml:space="preserve" text-anchor="middle" x="586.5" y="-500.13" font-family="Helvetica,sans-Serif" font-size="11.00">Applikations&#45;Schicht</text>
</g>
<!-- gm -->
<g id="node1" class="node">
<title>gm</title>
<path fill="#ffd966" stroke="#b8860b" d="M1624.17,-452.32C1624.17,-452.32 1481.83,-452.32 1481.83,-452.32 1475.83,-452.32 1469.83,-446.32 1469.83,-440.32 1469.83,-440.32 1469.83,-398.8 1469.83,-398.8 1469.83,-392.8 1475.83,-386.8 1481.83,-386.8 1481.83,-386.8 1624.17,-386.8 1624.17,-386.8 1630.17,-386.8 1636.17,-392.8 1636.17,-398.8 1636.17,-398.8 1636.17,-440.32 1636.17,-440.32 1636.17,-446.32 1630.17,-452.32 1624.17,-452.32"/>
<text xml:space="preserve" text-anchor="middle" x="1553" y="-436.11" font-family="Helvetica,sans-Serif" font-size="11.00">PTP Grandmaster</text>
<text xml:space="preserve" text-anchor="middle" x="1553" y="-422.61" font-family="Helvetica,sans-Serif" font-size="11.00">(noIP&#45;Projekt, anderes Board)</text>
<text xml:space="preserve" text-anchor="middle" x="1553" y="-409.11" font-family="Helvetica,sans-Serif" font-size="11.00">Sendet Sync + Follow_Up</text>
<text xml:space="preserve" text-anchor="middle" x="1553" y="-395.61" font-family="Helvetica,sans-Serif" font-size="11.00">EtherType 0x88F7</text>
</g>
<!-- lan865x_phy -->
<g id="node3" class="node">
<title>lan865x_phy</title>
<path fill="#f9cb9c" stroke="#cc6600" d="M1628.67,-229.04C1628.67,-229.04 1543.33,-229.04 1543.33,-229.04 1537.33,-229.04 1531.33,-223.04 1531.33,-217.04 1531.33,-217.04 1531.33,-175.52 1531.33,-175.52 1531.33,-169.52 1537.33,-163.52 1543.33,-163.52 1543.33,-163.52 1628.67,-163.52 1628.67,-163.52 1634.67,-163.52 1640.67,-169.52 1640.67,-175.52 1640.67,-175.52 1640.67,-217.04 1640.67,-217.04 1640.67,-223.04 1634.67,-229.04 1628.67,-229.04"/>
<text xml:space="preserve" text-anchor="middle" x="1586" y="-212.83" font-family="Helvetica,sans-Serif" font-size="11.00">LAN8650/1 PHY</text>
<text xml:space="preserve" text-anchor="middle" x="1586" y="-199.33" font-family="Helvetica,sans-Serif" font-size="11.00">10BASE&#45;T1S Bus</text>
<text xml:space="preserve" text-anchor="middle" x="1586" y="-185.83" font-family="Helvetica,sans-Serif" font-size="11.00">PLCA Node 7</text>
<text xml:space="preserve" text-anchor="middle" x="1586" y="-172.33" font-family="Helvetica,sans-Serif" font-size="11.00">192.168.0.200</text>
</g>
<!-- gm&#45;&gt;lan865x_phy -->
<g id="edge1" class="edge">
<title>gm&#45;&gt;lan865x_phy</title>
<path fill="none" stroke="#cc6600" d="M1557.8,-386.38C1563.53,-347.95 1573.14,-283.5 1579.53,-240.69"/>
<polygon fill="#cc6600" stroke="#cc6600" points="1582.96,-241.4 1580.97,-230.99 1576.04,-240.37 1582.96,-241.4"/>
<text xml:space="preserve" text-anchor="middle" x="1616.18" y="-313.54" font-family="Helvetica,sans-Serif" font-size="10.00" fill="#cc6600">Sync / Follow_Up</text>
<text xml:space="preserve" text-anchor="middle" x="1616.18" y="-301.54" font-family="Helvetica,sans-Serif" font-size="10.00" fill="#cc6600">(EtherType 0x88F7)</text>
<text xml:space="preserve" text-anchor="middle" x="1616.18" y="-289.54" font-family="Helvetica,sans-Serif" font-size="10.00" fill="#cc6600">10BASE&#45;T1S</text>
</g>
<!-- gmac_ext -->
<g id="node2" class="node">
<title>gmac_ext</title>
<path fill="#cfe2f3" stroke="#1a6496" d="M1757.3,-445.57C1757.3,-445.57 1690.7,-445.57 1690.7,-445.57 1684.7,-445.57 1678.7,-439.57 1678.7,-433.57 1678.7,-433.57 1678.7,-405.55 1678.7,-405.55 1678.7,-399.55 1684.7,-393.55 1690.7,-393.55 1690.7,-393.55 1757.3,-393.55 1757.3,-393.55 1763.3,-393.55 1769.3,-399.55 1769.3,-405.55 1769.3,-405.55 1769.3,-433.57 1769.3,-433.57 1769.3,-439.57 1763.3,-445.57 1757.3,-445.57"/>
<text xml:space="preserve" text-anchor="middle" x="1724" y="-429.36" font-family="Helvetica,sans-Serif" font-size="11.00">100BaseT</text>
<text xml:space="preserve" text-anchor="middle" x="1724" y="-415.86" font-family="Helvetica,sans-Serif" font-size="11.00">Ethernet&#45;Netz</text>
<text xml:space="preserve" text-anchor="middle" x="1724" y="-402.36" font-family="Helvetica,sans-Serif" font-size="11.00">192.168.0.210</text>
</g>
<!-- gmac_phy -->
<g id="node4" class="node">
<title>gmac_phy</title>
<path fill="#cfe2f3" stroke="#1a6496" d="M1762.3,-222.29C1762.3,-222.29 1695.7,-222.29 1695.7,-222.29 1689.7,-222.29 1683.7,-216.29 1683.7,-210.29 1683.7,-210.29 1683.7,-182.27 1683.7,-182.27 1683.7,-176.27 1689.7,-170.27 1695.7,-170.27 1695.7,-170.27 1762.3,-170.27 1762.3,-170.27 1768.3,-170.27 1774.3,-176.27 1774.3,-182.27 1774.3,-182.27 1774.3,-210.29 1774.3,-210.29 1774.3,-216.29 1768.3,-222.29 1762.3,-222.29"/>
<text xml:space="preserve" text-anchor="middle" x="1729" y="-206.08" font-family="Helvetica,sans-Serif" font-size="11.00">GMAC</text>
<text xml:space="preserve" text-anchor="middle" x="1729" y="-192.58" font-family="Helvetica,sans-Serif" font-size="11.00">100BaseT</text>
<text xml:space="preserve" text-anchor="middle" x="1729" y="-179.08" font-family="Helvetica,sans-Serif" font-size="11.00">192.168.0.210</text>
</g>
<!-- gmac_ext&#45;&gt;gmac_phy -->
<g id="edge2" class="edge">
<title>gmac_ext&#45;&gt;gmac_phy</title>
<path fill="none" stroke="#1a6496" d="M1722.51,-393.15C1720.96,-366.68 1718.75,-329.04 1718.75,-329.04 1718.75,-329.04 1718.75,-281.04 1718.75,-281.04 1718.75,-281.04 1721.79,-256.19 1724.56,-233.56"/>
<polygon fill="#1a6496" stroke="#1a6496" points="1728,-234.26 1725.74,-223.91 1721.05,-233.41 1728,-234.26"/>
<text xml:space="preserve" text-anchor="middle" x="1740.88" y="-301.54" font-family="Helvetica,sans-Serif" font-size="10.00" fill="#1a6496">100BaseT</text>
</g>
<!-- tc6 -->
<g id="node5" class="node">
<title>tc6</title>
<path fill="#d9ead3" stroke="#38761d" d="M1402.92,-650.6C1402.92,-650.6 1241.08,-650.6 1241.08,-650.6 1235.08,-650.6 1229.08,-644.6 1229.08,-638.6 1229.08,-638.6 1229.08,-583.58 1229.08,-583.58 1229.08,-577.58 1235.08,-571.58 1241.08,-571.58 1241.08,-571.58 1402.92,-571.58 1402.92,-571.58 1408.92,-571.58 1414.92,-577.58 1414.92,-583.58 1414.92,-583.58 1414.92,-638.6 1414.92,-638.6 1414.92,-644.6 1408.92,-650.6 1402.92,-650.6"/>
<text xml:space="preserve" text-anchor="middle" x="1322" y="-634.39" font-family="Helvetica,sans-Serif" font-size="11.00">tc6.c</text>
<text xml:space="preserve" text-anchor="middle" x="1322" y="-620.89" font-family="Helvetica,sans-Serif" font-size="11.00">on_rx_slice():</text>
<text xml:space="preserve" text-anchor="middle" x="1322" y="-607.39" font-family="Helvetica,sans-Serif" font-size="11.00"> &#160;extrahiert 8&#45;Byte rxTimestamp</text>
<text xml:space="preserve" text-anchor="middle" x="1322" y="-593.89" font-family="Helvetica,sans-Serif" font-size="11.00">on_rx_done():</text>
<text xml:space="preserve" text-anchor="middle" x="1322" y="-580.39" font-family="Helvetica,sans-Serif" font-size="11.00"> &#160;TC6_CB_OnRxEthernetPacket()</text>
</g>
<!-- lan865x_phy&#45;&gt;tc6 -->
<g id="edge3" class="edge">
<title>lan865x_phy&#45;&gt;tc6</title>
<path fill="none" stroke="#cc6600" d="M1625.34,-229.37C1643.88,-244.51 1662,-259.29 1662,-259.29 1662,-259.29 1773,-281.04 1773,-281.04 1773,-281.04 1787,-354.04 1787,-354.04 1787,-354.04 1787,-514.58 1787,-514.58 1787,-514.58 1563.29,-560.53 1426.2,-588.69"/>
<polygon fill="#cc6600" stroke="#cc6600" points="1425.83,-585.19 1416.74,-590.63 1427.24,-592.05 1425.83,-585.19"/>
<text xml:space="preserve" text-anchor="middle" x="1824.12" y="-428.06" font-family="Helvetica,sans-Serif" font-size="10.00">SPI</text>
<text xml:space="preserve" text-anchor="middle" x="1824.12" y="-416.06" font-family="Helvetica,sans-Serif" font-size="10.00">(Data + Footer</text>
<text xml:space="preserve" text-anchor="middle" x="1824.12" y="-404.06" font-family="Helvetica,sans-Serif" font-size="10.00">m. rxTimestamp)</text>
</g>
<!-- gmac_phy&#45;&gt;gmac_ext -->
<g id="edge21" class="edge">
<title>gmac_phy&#45;&gt;gmac_ext</title>
<path fill="none" stroke="#1a6496" d="M1741,-222.41C1752.78,-247.08 1769,-281.04 1769,-281.04 1769,-281.04 1769,-329.04 1769,-329.04 1769,-329.04 1754.38,-358.12 1741.81,-383.13"/>
<polygon fill="#1a6496" stroke="#1a6496" points="1738.82,-381.29 1737.45,-391.79 1745.07,-384.43 1738.82,-381.29"/>
</g>
<!-- drv_api -->
<g id="node6" class="node">
<title>drv_api</title>
<path fill="#d9ead3" stroke="#38761d" d="M1402.8,-472.57C1402.8,-472.57 1219.2,-472.57 1219.2,-472.57 1213.2,-472.57 1207.2,-466.57 1207.2,-460.57 1207.2,-460.57 1207.2,-378.55 1207.2,-378.55 1207.2,-372.55 1213.2,-366.55 1219.2,-366.55 1219.2,-366.55 1402.8,-366.55 1402.8,-366.55 1408.8,-366.55 1414.8,-372.55 1414.8,-378.55 1414.8,-378.55 1414.8,-460.57 1414.8,-460.57 1414.8,-466.57 1408.8,-472.57 1402.8,-472.57"/>
<text xml:space="preserve" text-anchor="middle" x="1311" y="-456.36" font-family="Helvetica,sans-Serif" font-size="11.00">drv_lan865x_api.c</text>
<text xml:space="preserve" text-anchor="middle" x="1311" y="-442.86" font-family="Helvetica,sans-Serif" font-size="11.00">[PATCH]</text>
<text xml:space="preserve" text-anchor="middle" x="1311" y="-429.36" font-family="Helvetica,sans-Serif" font-size="11.00">TC6_CB_OnRxEthernetPacket()</text>
<text xml:space="preserve" text-anchor="middle" x="1311" y="-415.86" font-family="Helvetica,sans-Serif" font-size="11.00">→ g_ptp_rx_ts speichern</text>
<text xml:space="preserve" text-anchor="middle" x="1311" y="-402.36" font-family="Helvetica,sans-Serif" font-size="11.00">DRV_LAN865X_ReadRegister()</text>
<text xml:space="preserve" text-anchor="middle" x="1311" y="-388.86" font-family="Helvetica,sans-Serif" font-size="11.00">DRV_LAN865X_WriteRegister()</text>
<text xml:space="preserve" text-anchor="middle" x="1311" y="-375.36" font-family="Helvetica,sans-Serif" font-size="11.00">DRV_LAN865X_SendRawEthFrame()</text>
</g>
<!-- tc6&#45;&gt;drv_api -->
<g id="edge4" class="edge">
<title>tc6&#45;&gt;drv_api</title>
<path fill="none" stroke="#38761d" d="M1319.75,-571.28C1318.29,-546.23 1316.37,-513.05 1314.69,-484.21"/>
<polygon fill="#38761d" stroke="#38761d" points="1318.2,-484.27 1314.13,-474.49 1311.22,-484.67 1318.2,-484.27"/>
<text xml:space="preserve" text-anchor="middle" x="1389.38" y="-537.08" font-family="Helvetica,sans-Serif" font-size="10.00">TC6_CB_OnRxEthernetPacket()</text>
<text xml:space="preserve" text-anchor="middle" x="1389.38" y="-525.08" font-family="Helvetica,sans-Serif" font-size="10.00">pTS = &amp;ts</text>
</g>
<!-- drv_api&#45;&gt;lan865x_phy -->
<g id="edge16" class="edge">
<title>drv_api&#45;&gt;lan865x_phy</title>
<path fill="none" stroke="#880044" d="M1374.71,-366.18C1421.97,-327.31 1478.25,-281.04 1478.25,-281.04 1478.25,-281.04 1507.57,-258.25 1535.62,-236.44"/>
<polygon fill="#880044" stroke="#880044" points="1537.71,-239.25 1543.45,-230.35 1533.41,-233.73 1537.71,-239.25"/>
<text xml:space="preserve" text-anchor="middle" x="1517.62" y="-307.54" font-family="Helvetica,sans-Serif" font-size="10.00">SPI TX</text>
<text xml:space="preserve" text-anchor="middle" x="1517.62" y="-295.54" font-family="Helvetica,sans-Serif" font-size="10.00">(Sync / FollowUp)</text>
</g>
<!-- ts_store -->
<g id="node7" class="node">
<title>ts_store</title>
<polygon fill="#fff2cc" stroke="#b8860b" points="1360.3,-229.04 1251.7,-229.04 1251.7,-163.52 1366.3,-163.52 1366.3,-223.04 1360.3,-229.04"/>
<polyline fill="none" stroke="#b8860b" points="1360.3,-229.04 1360.3,-223.04"/>
<polyline fill="none" stroke="#b8860b" points="1366.3,-223.04 1360.3,-223.04"/>
<text xml:space="preserve" text-anchor="middle" x="1309" y="-212.83" font-family="Helvetica,sans-Serif" font-size="11.00">g_ptp_rx_ts</text>
<text xml:space="preserve" text-anchor="middle" x="1309" y="-199.33" font-family="Helvetica,sans-Serif" font-size="11.00">(global)</text>
<text xml:space="preserve" text-anchor="middle" x="1309" y="-185.83" font-family="Helvetica,sans-Serif" font-size="11.00">rxTimestamp 64&#45;Bit</text>
<text xml:space="preserve" text-anchor="middle" x="1309" y="-172.33" font-family="Helvetica,sans-Serif" font-size="11.00">valid&#45;Flag</text>
</g>
<!-- drv_api&#45;&gt;ts_store -->
<g id="edge5" class="edge">
<title>drv_api&#45;&gt;ts_store</title>
<path fill="none" stroke="#b8860b" stroke-dasharray="5,2" d="M1310.53,-366.12C1310.18,-327.83 1309.72,-276.55 1309.39,-240.58"/>
<polygon fill="#b8860b" stroke="#b8860b" points="1312.9,-240.96 1309.3,-230.99 1305.9,-241.02 1312.9,-240.96"/>
<text xml:space="preserve" text-anchor="middle" x="1340.55" y="-307.54" font-family="Helvetica,sans-Serif" font-size="10.00">g_ptp_rx_ts =</text>
<text xml:space="preserve" text-anchor="middle" x="1340.55" y="-295.54" font-family="Helvetica,sans-Serif" font-size="10.00">*rxTimestamp</text>
</g>
<!-- eth0 -->
<g id="node8" class="node">
<title>eth0</title>
<path fill="#dce8f8" stroke="#1a6496" d="M229.05,-215.54C229.05,-215.54 154.95,-215.54 154.95,-215.54 148.95,-215.54 142.95,-209.54 142.95,-203.54 142.95,-203.54 142.95,-189.02 142.95,-189.02 142.95,-183.02 148.95,-177.02 154.95,-177.02 154.95,-177.02 229.05,-177.02 229.05,-177.02 235.05,-177.02 241.05,-183.02 241.05,-189.02 241.05,-189.02 241.05,-203.54 241.05,-203.54 241.05,-209.54 235.05,-215.54 229.05,-215.54"/>
<text xml:space="preserve" text-anchor="middle" x="192" y="-199.33" font-family="Helvetica,sans-Serif" font-size="11.00">eth0 (LAN865x)</text>
<text xml:space="preserve" text-anchor="middle" x="192" y="-185.83" font-family="Helvetica,sans-Serif" font-size="11.00">192.168.0.200</text>
</g>
<!-- drv_api&#45;&gt;eth0 -->
<g id="edge6" class="edge">
<title>drv_api&#45;&gt;eth0</title>
<path fill="none" stroke="#1a6496" d="M1223.31,-366.18C1211.31,-359 1203,-354.04 1203,-354.04 1203,-354.04 190.25,-329.04 190.25,-329.04 190.25,-329.04 190.25,-281.04 190.25,-281.04 190.25,-281.04 190.87,-251.13 191.38,-227.06"/>
<polygon fill="#1a6496" stroke="#1a6496" points="194.87,-227.45 191.58,-217.38 187.87,-227.31 194.87,-227.45"/>
<text xml:space="preserve" text-anchor="middle" x="241.62" y="-307.54" font-family="Helvetica,sans-Serif" font-size="10.00">TCPIP_MAC_PACKET</text>
<text xml:space="preserve" text-anchor="middle" x="241.62" y="-295.54" font-family="Helvetica,sans-Serif" font-size="10.00">→ RX&#45;Queue</text>
</g>
<!-- ptp_gm -->
<g id="node12" class="node">
<title>ptp_gm</title>
<path fill="#ead1dc" stroke="#880044" d="M849.67,-256.04C849.67,-256.04 692.33,-256.04 692.33,-256.04 686.33,-256.04 680.33,-250.04 680.33,-244.04 680.33,-244.04 680.33,-148.52 680.33,-148.52 680.33,-142.52 686.33,-136.52 692.33,-136.52 692.33,-136.52 849.67,-136.52 849.67,-136.52 855.67,-136.52 861.67,-142.52 861.67,-148.52 861.67,-148.52 861.67,-244.04 861.67,-244.04 861.67,-250.04 855.67,-256.04 849.67,-256.04"/>
<text xml:space="preserve" text-anchor="middle" x="771" y="-239.83" font-family="Helvetica,sans-Serif" font-size="11.00">ptp_gm_task.c ✦</text>
<text xml:space="preserve" text-anchor="middle" x="771" y="-226.33" font-family="Helvetica,sans-Serif" font-size="11.00">PTP_GM_Init()</text>
<text xml:space="preserve" text-anchor="middle" x="771" y="-212.83" font-family="Helvetica,sans-Serif" font-size="11.00">PTP_GM_Service() &#160;[1 ms Timer]</text>
<text xml:space="preserve" text-anchor="middle" x="771" y="-199.33" font-family="Helvetica,sans-Serif" font-size="11.00">14&#45;State Non&#45;Blocking SM:</text>
<text xml:space="preserve" text-anchor="middle" x="771" y="-185.83" font-family="Helvetica,sans-Serif" font-size="11.00"> &#160;Send Sync (TSC=1)</text>
<text xml:space="preserve" text-anchor="middle" x="771" y="-172.33" font-family="Helvetica,sans-Serif" font-size="11.00"> &#160;Read TXMCTL / OA_STATUS0</text>
<text xml:space="preserve" text-anchor="middle" x="771" y="-158.83" font-family="Helvetica,sans-Serif" font-size="11.00"> &#160;Read OA_TTSCAH/AL</text>
<text xml:space="preserve" text-anchor="middle" x="771" y="-145.33" font-family="Helvetica,sans-Serif" font-size="11.00"> &#160;Send FollowUp (TSC=0)</text>
</g>
<!-- drv_api&#45;&gt;ptp_gm -->
<g id="edge22" class="edge">
<title>drv_api&#45;&gt;ptp_gm</title>
<path fill="none" stroke="#880044" stroke-dasharray="5,2" d="M1223.31,-366.18C1211.31,-359 1203,-354.04 1203,-354.04 1203,-354.04 990.75,-329.04 990.75,-329.04 990.75,-329.04 949,-281.04 949,-281.04 949,-281.04 912.35,-263.8 872.32,-244.96"/>
<polygon fill="#880044" stroke="#880044" points="873.99,-241.88 863.46,-240.79 871.01,-248.21 873.99,-241.88"/>
<text xml:space="preserve" text-anchor="middle" x="1029.38" y="-319.54" font-family="Helvetica,sans-Serif" font-size="10.00">ReadRegister CB</text>
<text xml:space="preserve" text-anchor="middle" x="1029.38" y="-307.54" font-family="Helvetica,sans-Serif" font-size="10.00">OA_TTSCAH/AL</text>
<text xml:space="preserve" text-anchor="middle" x="1029.38" y="-295.54" font-family="Helvetica,sans-Serif" font-size="10.00">OA_STATUS0</text>
<text xml:space="preserve" text-anchor="middle" x="1029.38" y="-283.54" font-family="Helvetica,sans-Serif" font-size="10.00">TXMCTL</text>
</g>
<!-- app -->
<g id="node10" class="node">
<title>app</title>
<path fill="#fce5cd" stroke="#cc4400" d="M460.93,-465.82C460.93,-465.82 323.07,-465.82 323.07,-465.82 317.07,-465.82 311.07,-459.82 311.07,-453.82 311.07,-453.82 311.07,-385.3 311.07,-385.3 311.07,-379.3 317.07,-373.3 323.07,-373.3 323.07,-373.3 460.93,-373.3 460.93,-373.3 466.93,-373.3 472.93,-379.3 472.93,-385.3 472.93,-385.3 472.93,-453.82 472.93,-453.82 472.93,-459.82 466.93,-465.82 460.93,-465.82"/>
<text xml:space="preserve" text-anchor="middle" x="392" y="-449.61" font-family="Helvetica,sans-Serif" font-size="11.00">app.c</text>
<text xml:space="preserve" text-anchor="middle" x="392" y="-436.11" font-family="Helvetica,sans-Serif" font-size="11.00">pktEth0Handler()</text>
<text xml:space="preserve" text-anchor="middle" x="392" y="-422.61" font-family="Helvetica,sans-Serif" font-size="11.00">frameType == 0x88F7?</text>
<text xml:space="preserve" text-anchor="middle" x="392" y="-409.11" font-family="Helvetica,sans-Serif" font-size="11.00"> &#160;→ isPTP = true</text>
<text xml:space="preserve" text-anchor="middle" x="392" y="-395.61" font-family="Helvetica,sans-Serif" font-size="11.00"> &#160;→ rxTs aus g_ptp_rx_ts</text>
<text xml:space="preserve" text-anchor="middle" x="392" y="-382.11" font-family="Helvetica,sans-Serif" font-size="11.00">fwd_mode (non&#45;PTP frames)</text>
</g>
<!-- ts_store&#45;&gt;app -->
<g id="edge8" class="edge">
<title>ts_store&#45;&gt;app</title>
<path fill="none" stroke="#b8860b" stroke-dasharray="5,2" d="M1251.22,-221.84C1193.1,-246.56 1112,-281.04 1112,-281.04 1112,-281.04 1074,-329.04 1074,-329.04 1074,-329.04 494,-354.04 494,-354.04 494,-354.04 485.73,-359.27 473.89,-366.76"/>
<polygon fill="#b8860b" stroke="#b8860b" points="472.08,-363.76 465.5,-372.07 475.82,-369.68 472.08,-363.76"/>
<text xml:space="preserve" text-anchor="middle" x="1134.5" y="-301.54" font-family="Helvetica,sans-Serif" font-size="10.00">rxTs lesen</text>
</g>
<!-- eth1 -->
<g id="node9" class="node">
<title>eth1</title>
<path fill="#cfe2f3" stroke="#1a6496" d="M253.3,-62.52C253.3,-62.52 186.7,-62.52 186.7,-62.52 180.7,-62.52 174.7,-56.52 174.7,-50.52 174.7,-50.52 174.7,-36 174.7,-36 174.7,-30 180.7,-24 186.7,-24 186.7,-24 253.3,-24 253.3,-24 259.3,-24 265.3,-30 265.3,-36 265.3,-36 265.3,-50.52 265.3,-50.52 265.3,-56.52 259.3,-62.52 253.3,-62.52"/>
<text xml:space="preserve" text-anchor="middle" x="220" y="-46.31" font-family="Helvetica,sans-Serif" font-size="11.00">eth1 (GMAC)</text>
<text xml:space="preserve" text-anchor="middle" x="220" y="-32.81" font-family="Helvetica,sans-Serif" font-size="11.00">192.168.0.210</text>
</g>
<!-- eth0&#45;&gt;eth1 -->
<g id="edge19" class="edge">
<title>eth0&#45;&gt;eth1</title>
<path fill="none" stroke="#1a6496" stroke-dasharray="5,2" d="M195.43,-176.76C200.18,-151.17 208.79,-104.71 214.46,-74.17"/>
<polygon fill="#1a6496" stroke="#1a6496" points="217.88,-74.89 216.26,-64.42 211,-73.61 217.88,-74.89"/>
<text xml:space="preserve" text-anchor="middle" x="233.85" y="-102.02" font-family="Helvetica,sans-Serif" font-size="10.00">L2&#45;Bridge</text>
<text xml:space="preserve" text-anchor="middle" x="233.85" y="-90.02" font-family="Helvetica,sans-Serif" font-size="10.00">(non&#45;PTP)</text>
</g>
<!-- eth0&#45;&gt;app -->
<g id="edge7" class="edge">
<title>eth0&#45;&gt;app</title>
<path fill="none" stroke="#cc4400" d="M161.43,-215.87C120.85,-240.55 54.25,-281.04 54.25,-281.04 54.25,-281.04 54.25,-329.04 54.25,-329.04 54.25,-329.04 199.63,-367.57 299.63,-394.08"/>
<polygon fill="#cc4400" stroke="#cc4400" points="298.64,-397.44 309.21,-396.62 300.44,-390.67 298.64,-397.44"/>
<text xml:space="preserve" text-anchor="middle" x="96.62" y="-307.54" font-family="Helvetica,sans-Serif" font-size="10.00">pktEth0Handler()</text>
<text xml:space="preserve" text-anchor="middle" x="96.62" y="-295.54" font-family="Helvetica,sans-Serif" font-size="10.00">frameType callback</text>
</g>
<!-- eth1&#45;&gt;gmac_phy -->
<g id="edge20" class="edge">
<title>eth1&#45;&gt;gmac_phy</title>
<path fill="none" stroke="#1a6496" d="M265.54,-46.92C510.65,-61.24 1662,-128.52 1662,-128.52 1662,-128.52 1678.76,-145.22 1695.52,-161.92"/>
<polygon fill="#1a6496" stroke="#1a6496" points="1693.04,-164.39 1702.6,-168.97 1697.98,-159.43 1693.04,-164.39"/>
</g>
<!-- ptp_bridge -->
<g id="node11" class="node">
<title>ptp_bridge</title>
<path fill="#fce5cd" stroke="#cc4400" d="M625.8,-249.29C625.8,-249.29 460.2,-249.29 460.2,-249.29 454.2,-249.29 448.2,-243.29 448.2,-237.29 448.2,-237.29 448.2,-155.27 448.2,-155.27 448.2,-149.27 454.2,-143.27 460.2,-143.27 460.2,-143.27 625.8,-143.27 625.8,-143.27 631.8,-143.27 637.8,-149.27 637.8,-155.27 637.8,-155.27 637.8,-237.29 637.8,-237.29 637.8,-243.29 631.8,-249.29 625.8,-249.29"/>
<text xml:space="preserve" text-anchor="middle" x="543" y="-233.08" font-family="Helvetica,sans-Serif" font-size="11.00">ptp_bridge_task.c</text>
<text xml:space="preserve" text-anchor="middle" x="543" y="-219.58" font-family="Helvetica,sans-Serif" font-size="11.00">PTP_Task_OnSyncReceived()</text>
<text xml:space="preserve" text-anchor="middle" x="543" y="-206.08" font-family="Helvetica,sans-Serif" font-size="11.00">PTP_Task_OnFollowUpReceived()</text>
<text xml:space="preserve" text-anchor="middle" x="543" y="-192.58" font-family="Helvetica,sans-Serif" font-size="11.00">offset = t2 − rxTs</text>
<text xml:space="preserve" text-anchor="middle" x="543" y="-179.08" font-family="Helvetica,sans-Serif" font-size="11.00">Clock&#45;Servo (Filter, Trim)</text>
<text xml:space="preserve" text-anchor="middle" x="543" y="-165.58" font-family="Helvetica,sans-Serif" font-size="11.00">PTP_Bridge_GetMode()</text>
<text xml:space="preserve" text-anchor="middle" x="543" y="-152.08" font-family="Helvetica,sans-Serif" font-size="11.00">PTP_Bridge_SetMode()</text>
</g>
<!-- app&#45;&gt;ptp_bridge -->
<g id="edge9" class="edge">
<title>app&#45;&gt;ptp_bridge</title>
<path fill="none" stroke="#cc4400" d="M387.93,-373.01C385.95,-350.9 384,-329.04 384,-329.04 384,-329.04 384,-281.04 384,-281.04 384,-281.04 408.13,-268.33 437.59,-252.81"/>
<polygon fill="#cc4400" stroke="#cc4400" points="439.2,-255.92 446.42,-248.16 435.94,-249.72 439.2,-255.92"/>
<text xml:space="preserve" text-anchor="middle" x="439.5" y="-313.54" font-family="Helvetica,sans-Serif" font-size="10.00">PTP_Task_OnSync()</text>
<text xml:space="preserve" text-anchor="middle" x="439.5" y="-301.54" font-family="Helvetica,sans-Serif" font-size="10.00">PTP_Task_OnFollowUp()</text>
<text xml:space="preserve" text-anchor="middle" x="439.5" y="-289.54" font-family="Helvetica,sans-Serif" font-size="10.00">rxTs übergeben</text>
</g>
<!-- app&#45;&gt;ptp_gm -->
<g id="edge10" class="edge">
<title>app&#45;&gt;ptp_gm</title>
<path fill="none" stroke="#880044" d="M447.46,-373.01C474.38,-350.9 501,-329.04 501,-329.04 501,-329.04 539.25,-281.04 539.25,-281.04 539.25,-281.04 659,-259.29 659,-259.29 659,-259.29 663.26,-256.93 670.12,-253.14"/>
<polygon fill="#880044" stroke="#880044" points="671.69,-256.27 678.74,-248.36 668.3,-250.14 671.69,-256.27"/>
<text xml:space="preserve" text-anchor="middle" x="581.62" y="-307.54" font-family="Helvetica,sans-Serif" font-size="10.00">PTP_GM_Service()</text>
<text xml:space="preserve" text-anchor="middle" x="581.62" y="-295.54" font-family="Helvetica,sans-Serif" font-size="10.00">(1 ms Timer&#45;CB)</text>
</g>
<!-- reg_ta -->
<g id="node14" class="node">
<title>reg_ta</title>
<polygon fill="#fff2cc" stroke="#b8860b" points="1179.67,-630.35 1034.33,-630.35 1034.33,-591.83 1185.67,-591.83 1185.67,-624.35 1179.67,-630.35"/>
<polyline fill="none" stroke="#b8860b" points="1179.67,-630.35 1179.67,-624.35"/>
<polyline fill="none" stroke="#b8860b" points="1185.67,-624.35 1179.67,-624.35"/>
<text xml:space="preserve" text-anchor="middle" x="1110" y="-614.14" font-family="Helvetica,sans-Serif" font-size="11.00">MAC_TA 0x00010076</text>
<text xml:space="preserve" text-anchor="middle" x="1110" y="-600.64" font-family="Helvetica,sans-Serif" font-size="11.00">Einmalige Phasenkorrektur</text>
</g>
<!-- ptp_bridge&#45;&gt;reg_ta -->
<g id="edge11" class="edge">
<title>ptp_bridge&#45;&gt;reg_ta</title>
<path fill="none" stroke="#b8860b" stroke-dasharray="5,2" d="M638.26,-248.2C650.57,-254.79 659,-259.29 659,-259.29 659,-259.29 858,-281.04 858,-281.04 858,-281.04 987,-354.04 987,-354.04 987,-354.04 1064.13,-514.59 1096.23,-581.43"/>
<polygon fill="#b8860b" stroke="#b8860b" points="1093.01,-582.81 1100.5,-590.31 1099.32,-579.78 1093.01,-582.81"/>
<text xml:space="preserve" text-anchor="middle" x="1095.36" y="-422.06" font-family="Helvetica,sans-Serif" font-size="10.00">WriteRegister()</text>
<text xml:space="preserve" text-anchor="middle" x="1095.36" y="-410.06" font-family="Helvetica,sans-Serif" font-size="10.00">Phase</text>
</g>
<!-- reg_ti -->
<g id="node15" class="node">
<title>reg_ti</title>
<polygon fill="#fff2cc" stroke="#b8860b" points="985.17,-630.35 866.83,-630.35 866.83,-591.83 991.17,-591.83 991.17,-624.35 985.17,-630.35"/>
<polyline fill="none" stroke="#b8860b" points="985.17,-630.35 985.17,-624.35"/>
<polyline fill="none" stroke="#b8860b" points="991.17,-624.35 985.17,-624.35"/>
<text xml:space="preserve" text-anchor="middle" x="929" y="-614.14" font-family="Helvetica,sans-Serif" font-size="11.00">MAC_TI 0x00010077</text>
<text xml:space="preserve" text-anchor="middle" x="929" y="-600.64" font-family="Helvetica,sans-Serif" font-size="11.00">Frequenz&#45;Trim</text>
</g>
<!-- ptp_bridge&#45;&gt;reg_ti -->
<g id="edge12" class="edge">
<title>ptp_bridge&#45;&gt;reg_ti</title>
<path fill="none" stroke="#b8860b" stroke-dasharray="5,2" d="M638.26,-248.2C650.57,-254.79 659,-259.29 659,-259.29 659,-259.29 829,-281.04 829,-281.04 829,-281.04 884,-354.04 884,-354.04 884,-354.04 911.98,-513.27 923.82,-580.6"/>
<polygon fill="#b8860b" stroke="#b8860b" points="920.32,-580.94 925.5,-590.18 927.22,-579.73 920.32,-580.94"/>
<text xml:space="preserve" text-anchor="middle" x="944.33" y="-422.06" font-family="Helvetica,sans-Serif" font-size="10.00">WriteRegister()</text>
<text xml:space="preserve" text-anchor="middle" x="944.33" y="-410.06" font-family="Helvetica,sans-Serif" font-size="10.00">Freq</text>
</g>
<!-- ptp_gm&#45;&gt;drv_api -->
<g id="edge15" class="edge">
<title>ptp_gm&#45;&gt;drv_api</title>
<path fill="none" stroke="#880044" d="M861.85,-216.5C978.76,-241.23 1167,-281.04 1167,-281.04 1167,-281.04 1208.5,-329.04 1208.5,-329.04 1208.5,-329.04 1223.79,-342.39 1242.56,-358.78"/>
<polygon fill="#880044" stroke="#880044" points="1240.1,-361.29 1249.94,-365.23 1244.71,-356.02 1240.1,-361.29"/>
<text xml:space="preserve" text-anchor="middle" x="1254.25" y="-313.54" font-family="Helvetica,sans-Serif" font-size="10.00">SendRawEthFrame()</text>
<text xml:space="preserve" text-anchor="middle" x="1254.25" y="-301.54" font-family="Helvetica,sans-Serif" font-size="10.00">tsc=0x01 (Sync)</text>
<text xml:space="preserve" text-anchor="middle" x="1254.25" y="-289.54" font-family="Helvetica,sans-Serif" font-size="10.00">tsc=0x00 (FollowUp)</text>
</g>
<!-- cli -->
<g id="node13" class="node">
<title>cli</title>
<path fill="#fce5cd" stroke="#cc4400" d="M850.24,-485.08C850.24,-485.08 598.65,-485.08 598.65,-485.08 592.65,-485.08 583.8,-479.8 580.94,-474.53 580.94,-474.53 521.47,-364.59 521.47,-364.59 518.61,-359.32 521.76,-354.04 527.76,-354.04 527.76,-354.04 779.35,-354.04 779.35,-354.04 785.35,-354.04 794.2,-359.32 797.06,-364.59 797.06,-364.59 856.53,-474.53 856.53,-474.53 859.39,-479.8 856.24,-485.08 850.24,-485.08"/>
<text xml:space="preserve" text-anchor="middle" x="689" y="-436.11" font-family="Helvetica,sans-Serif" font-size="11.00">CLI (app.c)</text>
<text xml:space="preserve" text-anchor="middle" x="689" y="-422.61" font-family="Helvetica,sans-Serif" font-size="11.00">ptp_mode [off|follower|master]</text>
<text xml:space="preserve" text-anchor="middle" x="689" y="-409.11" font-family="Helvetica,sans-Serif" font-size="11.00">ptp_status</text>
<text xml:space="preserve" text-anchor="middle" x="689" y="-395.61" font-family="Helvetica,sans-Serif" font-size="11.00">ptp_interval &lt;ms&gt;</text>
</g>
<!-- cli&#45;&gt;ptp_bridge -->
<g id="edge17" class="edge">
<title>cli&#45;&gt;ptp_bridge</title>
<path fill="none" stroke="#cc4400" stroke-dasharray="5,2" d="M663.11,-353.83C648.85,-318.16 634,-281.04 634,-281.04 634,-281.04 622.79,-270.72 608.23,-257.32"/>
<polygon fill="#cc4400" stroke="#cc4400" points="610.7,-254.83 600.97,-250.64 605.96,-259.99 610.7,-254.83"/>
<text xml:space="preserve" text-anchor="middle" x="674.67" y="-307.54" font-family="Helvetica,sans-Serif" font-size="10.00">SetMode()</text>
<text xml:space="preserve" text-anchor="middle" x="674.67" y="-295.54" font-family="Helvetica,sans-Serif" font-size="10.00">GetMode()</text>
</g>
<!-- cli&#45;&gt;ptp_gm -->
<g id="edge18" class="edge">
<title>cli&#45;&gt;ptp_gm</title>
<path fill="none" stroke="#880044" stroke-dasharray="5,2" d="M717.14,-353.98C723.29,-339.86 728,-329.04 728,-329.04 728,-329.04 737.94,-298.58 748.26,-266.95"/>
<polygon fill="#880044" stroke="#880044" points="751.52,-268.25 751.29,-257.66 744.86,-266.08 751.52,-268.25"/>
<text xml:space="preserve" text-anchor="middle" x="781.01" y="-307.54" font-family="Helvetica,sans-Serif" font-size="10.00">Init()</text>
<text xml:space="preserve" text-anchor="middle" x="781.01" y="-295.54" font-family="Helvetica,sans-Serif" font-size="10.00">SetSyncInterval()</text>
</g>
<!-- reg_ta&#45;&gt;drv_api -->
<!-- reg_ti&#45;&gt;drv_api -->
</g>
</svg>
